<svg width="374" height="61" viewBox="0 0 374 61" fill="none" xmlns="http://www.w3.org/2000/svg">
<path d="M13.4217 8.45668C13.3365 7.5973 12.9707 6.92969 12.3244 6.45383C11.6781 5.97798 10.801 5.74006 9.693 5.74006C8.94016 5.74006 8.30451 5.84659 7.78604 6.05966C7.26758 6.26562 6.86985 6.55327 6.59286 6.92258C6.32298 7.2919 6.18803 7.71094 6.18803 8.17969C6.17383 8.57031 6.2555 8.91122 6.43306 9.20241C6.61772 9.49361 6.86985 9.74574 7.18945 9.95881C7.50906 10.1648 7.87837 10.3459 8.29741 10.5021C8.71644 10.6513 9.16389 10.7791 9.63974 10.8857L11.6 11.3544C12.5517 11.5675 13.4252 11.8516 14.2207 12.2067C15.0162 12.5618 15.7051 12.9986 16.2875 13.517C16.8699 14.0355 17.3208 14.6463 17.6404 15.3494C17.9672 16.0526 18.1341 16.8587 18.1412 17.7678C18.1341 19.103 17.7931 20.2607 17.1184 21.2408C16.4508 22.2138 15.4849 22.9702 14.2207 23.5099C12.9636 24.0426 11.4473 24.3089 9.6717 24.3089C7.91033 24.3089 6.37624 24.0391 5.06942 23.4993C3.76971 22.9595 2.75408 22.1605 2.02255 21.1023C1.29812 20.0369 0.918146 18.7195 0.882635 17.1499H5.34641C5.39613 17.8814 5.60565 18.4922 5.97496 18.9822C6.35139 19.4652 6.8521 19.831 7.4771 20.0795C8.1092 20.321 8.82298 20.4418 9.61843 20.4418C10.3997 20.4418 11.0779 20.3281 11.6532 20.1009C12.2356 19.8736 12.6866 19.5575 13.0062 19.1527C13.3258 18.7479 13.4856 18.2827 13.4856 17.7571C13.4856 17.267 13.34 16.8551 13.0488 16.5213C12.7647 16.1875 12.3457 15.9034 11.7917 15.669C11.2449 15.4347 10.5737 15.2216 9.77823 15.0298L7.40252 14.4332C5.56303 13.9858 4.11062 13.2862 3.04528 12.3345C1.97994 11.3828 1.45082 10.1009 1.45792 8.48864C1.45082 7.16761 1.80238 6.01349 2.51261 5.02628C3.22994 4.03906 4.2136 3.26847 5.4636 2.71449C6.7136 2.16051 8.13406 1.88352 9.72496 1.88352C11.3443 1.88352 12.7576 2.16051 13.965 2.71449C15.1795 3.26847 16.1241 4.03906 16.7988 5.02628C17.4735 6.01349 17.8216 7.15696 17.8429 8.45668H13.4217ZM28.5522 24.3196C26.8974 24.3196 25.4663 23.968 24.2589 23.2649C23.0586 22.5547 22.1317 21.5675 21.4783 20.3033C20.8249 19.032 20.4982 17.5582 20.4982 15.8821C20.4982 14.1918 20.8249 12.7145 21.4783 11.4503C22.1317 10.179 23.0586 9.19176 24.2589 8.48864C25.4663 7.77841 26.8974 7.4233 28.5522 7.4233C30.207 7.4233 31.6346 7.77841 32.8349 8.48864C34.0423 9.19176 34.9727 10.179 35.6261 11.4503C36.2795 12.7145 36.6062 14.1918 36.6062 15.8821C36.6062 17.5582 36.2795 19.032 35.6261 20.3033C34.9727 21.5675 34.0423 22.5547 32.8349 23.2649C31.6346 23.968 30.207 24.3196 28.5522 24.3196ZM28.5735 20.804C29.3263 20.804 29.9549 20.5909 30.4592 20.1648C30.9634 19.7315 31.3434 19.142 31.5991 18.3963C31.8619 17.6506 31.9933 16.8018 31.9933 15.8501C31.9933 14.8984 31.8619 14.0497 31.5991 13.304C31.3434 12.5582 30.9634 11.9687 30.4592 11.5355C29.9549 11.1023 29.3263 10.8857 28.5735 10.8857C27.8136 10.8857 27.1744 11.1023 26.6559 11.5355C26.1445 11.9687 25.7575 12.5582 25.4947 13.304C25.239 14.0497 25.1112 14.8984 25.1112 15.8501C25.1112 16.8018 25.239 17.6506 25.4947 18.3963C25.7575 19.142 26.1445 19.7315 26.6559 20.1648C27.1744 20.5909 27.8136 20.804 28.5735 20.804ZM44.0955 2.18182V24H39.5572V2.18182H44.0955ZM58.2246 17.0327V7.63636H62.763V24H58.4057V21.0277H58.2353C57.8659 21.9865 57.2516 22.7571 56.3922 23.3395C55.54 23.9219 54.4995 24.2131 53.2708 24.2131C52.177 24.2131 51.2147 23.9645 50.3837 23.4673C49.5527 22.9702 48.9029 22.2635 48.4341 21.3473C47.9725 20.4311 47.7381 19.3338 47.731 18.0554V7.63636H52.2694V17.2457C52.2765 18.2116 52.5357 18.9751 53.0471 19.5362C53.5584 20.0973 54.2438 20.3778 55.1032 20.3778C55.65 20.3778 56.1614 20.2536 56.6373 20.005C57.1131 19.7493 57.4966 19.3729 57.7878 18.8757C58.0861 18.3786 58.2317 17.7642 58.2246 17.0327ZM73.7866 24.3196C72.1104 24.3196 70.6687 23.9645 69.4613 23.2543C68.261 22.5369 67.3377 21.5426 66.6914 20.2713C66.0522 19 65.7326 17.5369 65.7326 15.8821C65.7326 14.206 66.0558 12.7358 66.7021 11.4716C67.3555 10.2003 68.2823 9.20952 69.4826 8.49929C70.6829 7.78196 72.1104 7.4233 73.7653 7.4233C75.1928 7.4233 76.4428 7.68253 77.5153 8.20099C78.5877 8.71946 79.4364 9.44744 80.0614 10.3849C80.6864 11.3224 81.0309 12.4233 81.0948 13.6875H76.8121C76.6914 12.8707 76.3718 12.2138 75.8533 11.7166C75.342 11.2124 74.6708 10.9602 73.8398 10.9602C73.1367 10.9602 72.5224 11.152 71.9968 11.5355C71.4783 11.9119 71.0735 12.4624 70.7823 13.1868C70.4911 13.9112 70.3455 14.7884 70.3455 15.8182C70.3455 16.8622 70.4876 17.75 70.7717 18.4815C71.0629 19.2131 71.4712 19.7706 71.9968 20.1541C72.5224 20.5376 73.1367 20.7294 73.8398 20.7294C74.3583 20.7294 74.8235 20.6229 75.2354 20.4098C75.6545 20.1967 75.9989 19.8878 76.2688 19.483C76.5458 19.071 76.7269 18.5774 76.8121 18.0021H81.0948C81.0238 19.2521 80.6829 20.353 80.0721 21.3047C79.4684 22.2493 78.6339 22.9879 77.5685 23.5206C76.5032 24.0533 75.2425 24.3196 73.7866 24.3196ZM72.7212 23.9148H74.8093L74.6388 24.8416C75.3704 24.9553 75.967 25.2287 76.4286 25.6619C76.8974 26.0952 77.1353 26.6847 77.1424 27.4304C77.1495 28.4886 76.6594 29.3303 75.6722 29.9553C74.685 30.5874 73.3001 30.9034 71.5174 30.9034L71.4748 28.8793C72.3697 28.8793 73.0692 28.7692 73.5735 28.549C74.0849 28.3359 74.3512 28.0021 74.3725 27.5476C74.3867 27.1143 74.2198 26.7841 73.8718 26.5568C73.5238 26.3295 72.9805 26.1697 72.2418 26.0774L72.7212 23.9148ZM91.394 24.3196C89.7392 24.3196 88.3081 23.968 87.1007 23.2649C85.9004 22.5547 84.9735 21.5675 84.3201 20.3033C83.6667 19.032 83.34 17.5582 83.34 15.8821C83.34 14.1918 83.6667 12.7145 84.3201 11.4503C84.9735 10.179 85.9004 9.19176 87.1007 8.48864C88.3081 7.77841 89.7392 7.4233 91.394 7.4233C93.0488 7.4233 94.4764 7.77841 95.6767 8.48864C96.8841 9.19176 97.8145 10.179 98.4679 11.4503C99.1213 12.7145 99.448 14.1918 99.448 15.8821C99.448 17.5582 99.1213 19.032 98.4679 20.3033C97.8145 21.5675 96.8841 22.5547 95.6767 23.2649C94.4764 23.968 93.0488 24.3196 91.394 24.3196ZM91.4153 20.804C92.1681 20.804 92.7967 20.5909 93.301 20.1648C93.8052 19.7315 94.1852 19.142 94.4409 18.3963C94.7037 17.6506 94.8351 16.8018 94.8351 15.8501C94.8351 14.8984 94.7037 14.0497 94.4409 13.304C94.1852 12.5582 93.8052 11.9687 93.301 11.5355C92.7967 11.1023 92.1681 10.8857 91.4153 10.8857C90.6554 10.8857 90.0162 11.1023 89.4977 11.5355C88.9863 11.9687 88.5993 12.5582 88.3365 13.304C88.0808 14.0497 87.9529 14.8984 87.9529 15.8501C87.9529 16.8018 88.0808 17.6506 88.3365 18.3963C88.5993 19.142 88.9863 19.7315 89.4977 20.1648C90.0162 20.5909 90.6554 20.804 91.4153 20.804ZM88.3471 5.62287L85.8223 5.59091C85.8223 4.23438 86.1561 3.19389 86.8237 2.46946C87.4984 1.74503 88.3187 1.37926 89.2846 1.37216C89.7818 1.37216 90.2079 1.45384 90.563 1.61719C90.9252 1.77344 91.2484 1.9581 91.5325 2.17116C91.8237 2.38423 92.1007 2.57244 92.3635 2.7358C92.6262 2.89205 92.9103 2.97017 93.2157 2.97017C93.6277 2.96307 93.9402 2.81037 94.1532 2.51207C94.3734 2.20668 94.4835 1.80895 94.4835 1.31889L96.9657 1.39346C96.9515 2.73579 96.6106 3.77273 95.943 4.50426C95.2754 5.22869 94.4622 5.59446 93.5034 5.60156C92.9707 5.60156 92.5233 5.52344 92.161 5.36719C91.8059 5.20384 91.4934 5.01918 91.2235 4.81321C90.9537 4.60014 90.6909 4.41193 90.4352 4.24858C90.1795 4.08523 89.8919 4.00355 89.5723 4.00355C89.2029 4.00355 88.9047 4.14915 88.6774 4.44034C88.4572 4.73153 88.3471 5.12571 88.3471 5.62287ZM109.856 24.3196C108.173 24.3196 106.724 23.9787 105.51 23.2969C104.302 22.608 103.372 21.6349 102.719 20.3778C102.065 19.1136 101.738 17.6186 101.738 15.8928C101.738 14.2095 102.065 12.7322 102.719 11.4609C103.372 10.1896 104.292 9.19886 105.478 8.48864C106.671 7.77841 108.07 7.4233 109.675 7.4233C110.755 7.4233 111.76 7.5973 112.69 7.94531C113.628 8.28622 114.444 8.80114 115.14 9.49006C115.844 10.179 116.39 11.0455 116.781 12.0895C117.172 13.1264 117.367 14.3409 117.367 15.733V16.9794H103.55V14.1669H113.095C113.095 13.5135 112.953 12.9347 112.669 12.4304C112.385 11.9261 111.991 11.532 111.486 11.2479C110.989 10.9567 110.41 10.8111 109.75 10.8111C109.061 10.8111 108.45 10.9709 107.917 11.2905C107.392 11.603 106.98 12.0256 106.682 12.5582C106.383 13.0838 106.231 13.6697 106.224 14.3161V16.9901C106.224 17.7997 106.373 18.4993 106.671 19.0888C106.976 19.6783 107.406 20.1328 107.96 20.4524C108.514 20.772 109.171 20.9318 109.931 20.9318C110.435 20.9318 110.897 20.8608 111.316 20.7188C111.735 20.5767 112.094 20.3636 112.392 20.0795C112.69 19.7955 112.917 19.4474 113.074 19.0355L117.271 19.3125C117.058 20.321 116.621 21.2017 115.961 21.9545C115.307 22.7003 114.462 23.2827 113.425 23.7017C112.395 24.1136 111.206 24.3196 109.856 24.3196ZM133.944 12.3026L129.789 12.5582C129.718 12.2031 129.565 11.8835 129.331 11.5994C129.096 11.3082 128.787 11.0774 128.404 10.907C128.028 10.7294 127.577 10.6406 127.051 10.6406C126.348 10.6406 125.755 10.7898 125.272 11.0881C124.789 11.3793 124.547 11.7699 124.547 12.2599C124.547 12.6506 124.704 12.9808 125.016 13.2507C125.329 13.5206 125.865 13.7372 126.625 13.9006L129.586 14.4972C131.177 14.8239 132.363 15.3494 133.145 16.0739C133.926 16.7983 134.317 17.75 134.317 18.929C134.317 20.0014 134.001 20.9425 133.368 21.7521C132.743 22.5618 131.884 23.1939 130.79 23.6484C129.704 24.0959 128.45 24.3196 127.03 24.3196C124.863 24.3196 123.138 23.8686 121.852 22.9666C120.574 22.0575 119.824 20.8217 119.604 19.2592L124.068 19.0249C124.203 19.6854 124.53 20.1896 125.048 20.5376C125.567 20.8786 126.231 21.049 127.04 21.049C127.836 21.049 128.475 20.8963 128.958 20.5909C129.448 20.2784 129.697 19.8771 129.704 19.3871C129.697 18.9751 129.523 18.6378 129.182 18.375C128.841 18.1051 128.315 17.8991 127.605 17.7571L124.771 17.1925C123.173 16.8729 121.983 16.3189 121.202 15.5305C120.428 14.7422 120.041 13.7372 120.041 12.5156C120.041 11.4645 120.325 10.5589 120.893 9.79901C121.469 9.03906 122.275 8.45313 123.312 8.04119C124.356 7.62926 125.577 7.4233 126.976 7.4233C129.043 7.4233 130.67 7.86009 131.856 8.73366C133.049 9.60724 133.745 10.7969 133.944 12.3026ZM147.964 24H143.02L150.552 2.18182H156.497L164.018 24H159.075L153.61 7.16761H153.439L147.964 24ZM147.655 15.424H159.331V19.0249H147.655V15.424ZM171.827 24.2663C170.584 24.2663 169.459 23.9467 168.45 23.3075C167.449 22.6612 166.653 21.7131 166.064 20.4631C165.481 19.206 165.19 17.6648 165.19 15.8395C165.19 13.9645 165.492 12.4055 166.096 11.1626C166.699 9.91264 167.502 8.97869 168.503 8.3608C169.512 7.7358 170.616 7.4233 171.817 7.4233C172.733 7.4233 173.496 7.57955 174.107 7.89205C174.725 8.19744 175.222 8.58097 175.599 9.04261C175.982 9.49716 176.273 9.9446 176.472 10.3849H176.611V2.18182H181.138V24H176.664V21.3793H176.472C176.259 21.8338 175.957 22.2848 175.567 22.7322C175.183 23.1726 174.682 23.5384 174.064 23.8295C173.454 24.1207 172.708 24.2663 171.827 24.2663ZM173.265 20.6548C173.997 20.6548 174.615 20.456 175.119 20.0582C175.631 19.6534 176.021 19.0888 176.291 18.3643C176.568 17.6399 176.706 16.7912 176.706 15.8182C176.706 14.8452 176.572 14 176.302 13.2827C176.032 12.5653 175.641 12.0114 175.13 11.6207C174.618 11.2301 173.997 11.0348 173.265 11.0348C172.52 11.0348 171.891 11.2372 171.38 11.642C170.868 12.0469 170.481 12.608 170.219 13.3253C169.956 14.0426 169.824 14.8736 169.824 15.8182C169.824 16.7699 169.956 17.6115 170.219 18.343C170.488 19.0675 170.876 19.6357 171.38 20.0476C171.891 20.4524 172.52 20.6548 173.265 20.6548ZM184.87 24V7.63636H189.195V10.5234H189.387C189.728 9.56463 190.296 8.80824 191.091 8.25426C191.887 7.70028 192.838 7.4233 193.946 7.4233C195.069 7.4233 196.024 7.70384 196.812 8.26491C197.6 8.81889 198.126 9.57173 198.389 10.5234H198.559C198.893 9.58594 199.497 8.83665 200.37 8.27557C201.251 7.70739 202.292 7.4233 203.492 7.4233C205.019 7.4233 206.258 7.9098 207.21 8.88281C208.169 9.84872 208.648 11.2195 208.648 12.995V24H204.12V13.8899C204.12 12.9808 203.879 12.299 203.396 11.8445C202.913 11.3899 202.309 11.1626 201.585 11.1626C200.761 11.1626 200.118 11.4254 199.657 11.951C199.195 12.4695 198.964 13.1548 198.964 14.0071V24H194.564V13.794C194.564 12.9915 194.333 12.3523 193.872 11.8764C193.417 11.4006 192.817 11.1626 192.071 11.1626C191.567 11.1626 191.113 11.2905 190.708 11.5462C190.31 11.7947 189.994 12.1463 189.76 12.6009C189.525 13.0483 189.408 13.5739 189.408 14.1776V24H184.87ZM212.233 24V7.63636H216.771V24H212.233ZM214.513 5.52699C213.838 5.52699 213.259 5.30327 212.776 4.85582C212.3 4.40128 212.062 3.85795 212.062 3.22585C212.062 2.60085 212.3 2.06463 212.776 1.61719C213.259 1.16264 213.838 0.935368 214.513 0.935368C215.188 0.935368 215.763 1.16264 216.239 1.61719C216.722 2.06463 216.963 2.60085 216.963 3.22585C216.963 3.85795 216.722 4.40128 216.239 4.85582C215.763 5.30327 215.188 5.52699 214.513 5.52699ZM224.945 14.5398V24H220.407V7.63636H224.732V10.5234H224.924C225.286 9.57173 225.893 8.81889 226.746 8.26491C227.598 7.70384 228.631 7.4233 229.846 7.4233C230.982 7.4233 231.973 7.67187 232.818 8.16903C233.663 8.66619 234.32 9.37642 234.789 10.2997C235.258 11.2159 235.492 12.3097 235.492 13.581V24H230.954V14.3906C230.961 13.3892 230.705 12.608 230.187 12.0469C229.668 11.4787 228.954 11.1946 228.045 11.1946C227.434 11.1946 226.895 11.326 226.426 11.5888C225.964 11.8516 225.602 12.2351 225.339 12.7393C225.084 13.2365 224.952 13.8366 224.945 14.5398ZM239.069 24V7.63636H243.607V24H239.069ZM241.349 5.52699C240.674 5.52699 240.095 5.30327 239.612 4.85582C239.136 4.40128 238.898 3.85795 238.898 3.22585C238.898 2.60085 239.136 2.06463 239.612 1.61719C240.095 1.16264 240.674 0.935368 241.349 0.935368C242.023 0.935368 242.599 1.16264 243.075 1.61719C243.558 2.06463 243.799 2.60085 243.799 3.22585C243.799 3.85795 243.558 4.40128 243.075 4.85582C242.599 5.30327 242.023 5.52699 241.349 5.52699ZM260.858 12.3026L256.703 12.5582C256.632 12.2031 256.479 11.8835 256.245 11.5994C256.01 11.3082 255.702 11.0774 255.318 10.907C254.942 10.7294 254.491 10.6406 253.965 10.6406C253.262 10.6406 252.669 10.7898 252.186 11.0881C251.703 11.3793 251.461 11.7699 251.461 12.2599C251.461 12.6506 251.618 12.9808 251.93 13.2507C252.243 13.5206 252.779 13.7372 253.539 13.9006L256.501 14.4972C258.091 14.8239 259.278 15.3494 260.059 16.0739C260.84 16.7983 261.231 17.75 261.231 18.929C261.231 20.0014 260.915 20.9425 260.282 21.7521C259.657 22.5618 258.798 23.1939 257.704 23.6484C256.618 24.0959 255.364 24.3196 253.944 24.3196C251.778 24.3196 250.052 23.8686 248.766 22.9666C247.488 22.0575 246.738 20.8217 246.518 19.2592L250.982 19.0249C251.117 19.6854 251.444 20.1896 251.962 20.5376C252.481 20.8786 253.145 21.049 253.954 21.049C254.75 21.049 255.389 20.8963 255.872 20.5909C256.362 20.2784 256.611 19.8771 256.618 19.3871C256.611 18.9751 256.437 18.6378 256.096 18.375C255.755 18.1051 255.229 17.8991 254.519 17.7571L251.685 17.1925C250.087 16.8729 248.898 16.3189 248.116 15.5305C247.342 14.7422 246.955 13.7372 246.955 12.5156C246.955 11.4645 247.239 10.5589 247.807 9.79901C248.383 9.03906 249.189 8.45313 250.226 8.04119C251.27 7.62926 252.491 7.4233 253.89 7.4233C255.957 7.4233 257.584 7.86009 258.77 8.73366C259.963 9.60724 260.659 10.7969 260.858 12.3026ZM272.792 7.63636V11.0455H262.938V7.63636H272.792ZM265.175 3.71591H269.713V18.9716C269.713 19.3906 269.777 19.7173 269.905 19.9517C270.033 20.179 270.211 20.3388 270.438 20.4311C270.672 20.5234 270.942 20.5696 271.248 20.5696C271.461 20.5696 271.674 20.5518 271.887 20.5163C272.1 20.4737 272.263 20.4418 272.377 20.4205L273.091 23.7976C272.863 23.8686 272.544 23.9503 272.132 24.0426C271.72 24.142 271.219 24.2024 270.63 24.2237C269.536 24.2663 268.577 24.1207 267.753 23.7869C266.936 23.4531 266.301 22.9347 265.846 22.2315C265.392 21.5284 265.168 20.6406 265.175 19.5682V3.71591ZM275.749 24V7.63636H280.148V10.4915H280.319C280.617 9.47585 281.118 8.70881 281.821 8.19034C282.524 7.66477 283.334 7.40199 284.25 7.40199C284.477 7.40199 284.722 7.41619 284.985 7.4446C285.248 7.47301 285.479 7.51207 285.678 7.56179V11.5888C285.464 11.5249 285.17 11.468 284.793 11.4183C284.417 11.3686 284.072 11.3438 283.76 11.3438C283.092 11.3438 282.496 11.4893 281.97 11.7805C281.452 12.0646 281.04 12.4624 280.734 12.9737C280.436 13.4851 280.287 14.0746 280.287 14.7422V24H275.749ZM292.221 24.3089C291.177 24.3089 290.247 24.1278 289.43 23.7656C288.613 23.3963 287.967 22.853 287.491 22.1357C287.023 21.4112 286.788 20.5092 286.788 19.4297C286.788 18.5206 286.955 17.7571 287.289 17.1392C287.623 16.5213 288.077 16.0241 288.653 15.6477C289.228 15.2713 289.881 14.9872 290.613 14.7955C291.351 14.6037 292.126 14.4688 292.935 14.3906C293.887 14.2912 294.654 14.1989 295.236 14.1136C295.819 14.0213 296.241 13.8864 296.504 13.7088C296.767 13.5312 296.898 13.2685 296.898 12.9205V12.8565C296.898 12.1818 296.685 11.6598 296.259 11.2905C295.84 10.9212 295.243 10.7365 294.469 10.7365C293.653 10.7365 293.003 10.9176 292.52 11.2798C292.037 11.6349 291.717 12.0824 291.561 12.6222L287.363 12.2812C287.577 11.2869 287.996 10.4276 288.621 9.70312C289.246 8.97159 290.052 8.41051 291.039 8.01989C292.033 7.62216 293.184 7.4233 294.491 7.4233C295.4 7.4233 296.27 7.52983 297.101 7.7429C297.939 7.95597 298.681 8.28622 299.327 8.73366C299.981 9.18111 300.496 9.75639 300.872 10.4595C301.248 11.1555 301.437 11.9901 301.437 12.9631V24H297.133V21.7308H297.005C296.742 22.2422 296.39 22.6932 295.95 23.0838C295.51 23.4673 294.981 23.7692 294.363 23.9893C293.745 24.2024 293.031 24.3089 292.221 24.3089ZM293.521 21.1768C294.189 21.1768 294.778 21.0455 295.29 20.7827C295.801 20.5128 296.202 20.1506 296.493 19.696C296.785 19.2415 296.93 18.7266 296.93 18.1513V16.4148C296.788 16.5071 296.593 16.5923 296.344 16.6705C296.103 16.7415 295.829 16.8089 295.524 16.8729C295.219 16.9297 294.913 16.983 294.608 17.0327C294.302 17.0753 294.025 17.1143 293.777 17.1499C293.244 17.228 292.779 17.3523 292.381 17.5227C291.983 17.6932 291.675 17.924 291.454 18.2152C291.234 18.4993 291.124 18.8544 291.124 19.2805C291.124 19.8984 291.348 20.3707 291.795 20.6974C292.25 21.017 292.825 21.1768 293.521 21.1768ZM313.661 7.63636V11.0455H303.807V7.63636H313.661ZM306.044 3.71591H310.583V18.9716C310.583 19.3906 310.646 19.7173 310.774 19.9517C310.902 20.179 311.08 20.3388 311.307 20.4311C311.541 20.5234 311.811 20.5696 312.117 20.5696C312.33 20.5696 312.543 20.5518 312.756 20.5163C312.969 20.4737 313.132 20.4418 313.246 20.4205L313.96 23.7976C313.732 23.8686 313.413 23.9503 313.001 24.0426C312.589 24.142 312.088 24.2024 311.499 24.2237C310.405 24.2663 309.446 24.1207 308.622 23.7869C307.806 23.4531 307.17 22.9347 306.715 22.2315C306.261 21.5284 306.037 20.6406 306.044 19.5682V3.71591ZM316.618 24V7.63636H321.156V24H316.618ZM318.898 5.52699C318.223 5.52699 317.644 5.30327 317.161 4.85582C316.685 4.40128 316.447 3.85795 316.447 3.22585C316.447 2.60085 316.685 2.06463 317.161 1.61719C317.644 1.16264 318.223 0.935368 318.898 0.935368C319.572 0.935368 320.148 1.16264 320.623 1.61719C321.106 2.06463 321.348 2.60085 321.348 3.22585C321.348 3.85795 321.106 4.40128 320.623 4.85582C320.148 5.30327 319.572 5.52699 318.898 5.52699ZM340.047 7.63636L334.326 24H329.213L323.492 7.63636H328.286L331.684 19.3445H331.855L335.243 7.63636H340.047ZM346.596 24.3089C345.552 24.3089 344.622 24.1278 343.805 23.7656C342.988 23.3963 342.342 22.853 341.866 22.1357C341.398 21.4112 341.163 20.5092 341.163 19.4297C341.163 18.5206 341.33 17.7571 341.664 17.1392C341.998 16.5213 342.452 16.0241 343.028 15.6477C343.603 15.2713 344.256 14.9872 344.988 14.7955C345.726 14.6037 346.501 14.4688 347.31 14.3906C348.262 14.2912 349.029 14.1989 349.611 14.1136C350.194 14.0213 350.616 13.8864 350.879 13.7088C351.142 13.5312 351.273 13.2685 351.273 12.9205V12.8565C351.273 12.1818 351.06 11.6598 350.634 11.2905C350.215 10.9212 349.618 10.7365 348.844 10.7365C348.028 10.7365 347.378 10.9176 346.895 11.2798C346.412 11.6349 346.092 12.0824 345.936 12.6222L341.738 12.2812C341.952 11.2869 342.371 10.4276 342.996 9.70312C343.621 8.97159 344.427 8.41051 345.414 8.01989C346.408 7.62216 347.559 7.4233 348.866 7.4233C349.775 7.4233 350.645 7.52983 351.476 7.7429C352.314 7.95597 353.056 8.28622 353.702 8.73366C354.356 9.18111 354.871 9.75639 355.247 10.4595C355.623 11.1555 355.812 11.9901 355.812 12.9631V24H351.508V21.7308H351.38C351.117 22.2422 350.765 22.6932 350.325 23.0838C349.885 23.4673 349.356 23.7692 348.738 23.9893C348.12 24.2024 347.406 24.3089 346.596 24.3089ZM347.896 21.1768C348.564 21.1768 349.153 21.0455 349.665 20.7827C350.176 20.5128 350.577 20.1506 350.868 19.696C351.16 19.2415 351.305 18.7266 351.305 18.1513V16.4148C351.163 16.5071 350.968 16.5923 350.719 16.6705C350.478 16.7415 350.204 16.8089 349.899 16.8729C349.594 16.9297 349.288 16.983 348.983 17.0327C348.677 17.0753 348.4 17.1143 348.152 17.1499C347.619 17.228 347.154 17.3523 346.756 17.5227C346.358 17.6932 346.05 17.924 345.829 18.2152C345.609 18.4993 345.499 18.8544 345.499 19.2805C345.499 19.8984 345.723 20.3707 346.17 20.6974C346.625 21.017 347.2 21.1768 347.896 21.1768ZM372.948 12.3026L368.793 12.5582C368.722 12.2031 368.569 11.8835 368.335 11.5994C368.1 11.3082 367.791 11.0774 367.408 10.907C367.031 10.7294 366.58 10.6406 366.055 10.6406C365.352 10.6406 364.759 10.7898 364.276 11.0881C363.793 11.3793 363.551 11.7699 363.551 12.2599C363.551 12.6506 363.708 12.9808 364.02 13.2507C364.333 13.5206 364.869 13.7372 365.629 13.9006L368.59 14.4972C370.181 14.8239 371.367 15.3494 372.149 16.0739C372.93 16.7983 373.32 17.75 373.32 18.929C373.32 20.0014 373.004 20.9425 372.372 21.7521C371.747 22.5618 370.888 23.1939 369.794 23.6484C368.708 24.0959 367.454 24.3196 366.034 24.3196C363.867 24.3196 362.142 23.8686 360.856 22.9666C359.578 22.0575 358.828 20.8217 358.608 19.2592L363.072 19.0249C363.207 19.6854 363.534 20.1896 364.052 20.5376C364.57 20.8786 365.235 21.049 366.044 21.049C366.84 21.049 367.479 20.8963 367.962 20.5909C368.452 20.2784 368.7 19.8771 368.708 19.3871C368.7 18.9751 368.526 18.6378 368.186 18.375C367.845 18.1051 367.319 17.8991 366.609 17.7571L363.775 17.1925C362.177 16.8729 360.987 16.3189 360.206 15.5305C359.432 14.7422 359.045 13.7372 359.045 12.5156C359.045 11.4645 359.329 10.5589 359.897 9.79901C360.472 9.03906 361.279 8.45313 362.316 8.04119C363.36 7.62926 364.581 7.4233 365.98 7.4233C368.047 7.4233 369.673 7.86009 370.86 8.73366C372.053 9.60724 372.749 10.7969 372.948 12.3026ZM79.9549 60V38.1818H88.5629C90.2177 38.1818 91.6275 38.4979 92.7923 39.13C93.957 39.755 94.8448 40.625 95.4556 41.7401C96.0735 42.848 96.3825 44.1264 96.3825 45.5753C96.3825 47.0241 96.07 48.3026 95.445 49.4105C94.82 50.5185 93.9144 51.3814 92.7283 51.9993C91.5494 52.6172 90.1218 52.9261 88.4457 52.9261H82.9592V49.2294H87.6999C88.5877 49.2294 89.3192 49.0767 89.8945 48.7713C90.4769 48.4588 90.9102 48.0291 91.1942 47.4822C91.4854 46.9283 91.631 46.2926 91.631 45.5753C91.631 44.8509 91.4854 44.2187 91.1942 43.679C90.9102 43.1321 90.4769 42.7095 89.8945 42.4112C89.3121 42.1058 88.5735 41.9531 87.6786 41.9531H84.5678V60H79.9549ZM106.487 60.3196C104.804 60.3196 103.355 59.9787 102.141 59.2969C100.933 58.608 100.003 57.6349 99.3494 56.3778C98.696 55.1136 98.3693 53.6186 98.3693 51.8928C98.3693 50.2095 98.696 48.7322 99.3494 47.4609C100.003 46.1896 100.923 45.1989 102.109 44.4886C103.302 43.7784 104.701 43.4233 106.306 43.4233C107.386 43.4233 108.391 43.5973 109.321 43.9453C110.259 44.2862 111.075 44.8011 111.771 45.4901C112.474 46.179 113.021 47.0455 113.412 48.0895C113.803 49.1264 113.998 50.3409 113.998 51.733V52.9794H100.18V50.1669H109.726C109.726 49.5135 109.584 48.9347 109.3 48.4304C109.016 47.9261 108.621 47.532 108.117 47.2479C107.62 46.9567 107.041 46.8111 106.381 46.8111C105.692 46.8111 105.081 46.9709 104.548 47.2905C104.023 47.603 103.611 48.0256 103.312 48.5582C103.014 49.0838 102.862 49.6697 102.854 50.3161V52.9901C102.854 53.7997 103.004 54.4993 103.302 55.0888C103.607 55.6783 104.037 56.1328 104.591 56.4524C105.145 56.772 105.802 56.9318 106.562 56.9318C107.066 56.9318 107.528 56.8608 107.947 56.7188C108.366 56.5767 108.724 56.3636 109.023 56.0795C109.321 55.7955 109.548 55.4474 109.705 55.0355L113.902 55.3125C113.689 56.321 113.252 57.2017 112.592 57.9545C111.938 58.7003 111.093 59.2827 110.056 59.7017C109.026 60.1136 107.837 60.3196 106.487 60.3196ZM116.96 60V43.6364H121.359V46.4915H121.53C121.828 45.4759 122.329 44.7088 123.032 44.1903C123.735 43.6648 124.545 43.402 125.461 43.402C125.688 43.402 125.933 43.4162 126.196 43.4446C126.459 43.473 126.69 43.5121 126.888 43.5618V47.5888C126.675 47.5249 126.381 47.468 126.004 47.4183C125.628 47.3686 125.283 47.3438 124.971 47.3438C124.303 47.3438 123.707 47.4893 123.181 47.7805C122.663 48.0646 122.251 48.4624 121.945 48.9737C121.647 49.4851 121.498 50.0746 121.498 50.7422V60H116.96ZM142.85 48.3026L138.695 48.5582C138.624 48.2031 138.471 47.8835 138.237 47.5994C138.003 47.3082 137.694 47.0774 137.31 46.907C136.934 46.7294 136.483 46.6406 135.957 46.6406C135.254 46.6406 134.661 46.7898 134.178 47.0881C133.695 47.3793 133.454 47.7699 133.454 48.2599C133.454 48.6506 133.61 48.9808 133.922 49.2507C134.235 49.5206 134.771 49.7372 135.531 49.9006L138.493 50.4972C140.084 50.8239 141.27 51.3494 142.051 52.0739C142.832 52.7983 143.223 53.75 143.223 54.929C143.223 56.0014 142.907 56.9425 142.275 57.7521C141.65 58.5618 140.79 59.1939 139.697 59.6484C138.61 60.0959 137.356 60.3196 135.936 60.3196C133.77 60.3196 132.044 59.8686 130.758 58.9666C129.48 58.0575 128.731 56.8217 128.51 55.2592L132.974 55.0249C133.109 55.6854 133.436 56.1896 133.954 56.5376C134.473 56.8786 135.137 57.049 135.947 57.049C136.742 57.049 137.381 56.8963 137.864 56.5909C138.354 56.2784 138.603 55.8771 138.61 55.3871C138.603 54.9751 138.429 54.6378 138.088 54.375C137.747 54.1051 137.221 53.8991 136.511 53.7571L133.677 53.1925C132.079 52.8729 130.89 52.3189 130.108 51.5305C129.334 50.7422 128.947 49.7372 128.947 48.5156C128.947 47.4645 129.231 46.5589 129.8 45.799C130.375 45.0391 131.181 44.4531 132.218 44.0412C133.262 43.6293 134.483 43.4233 135.883 43.4233C137.949 43.4233 139.576 43.8601 140.762 44.7337C141.955 45.6072 142.651 46.7969 142.85 48.3026ZM153.474 60.3196C151.819 60.3196 150.388 59.968 149.181 59.2649C147.98 58.5547 147.054 57.5675 146.4 56.3033C145.747 55.032 145.42 53.5582 145.42 51.8821C145.42 50.1918 145.747 48.7145 146.4 47.4503C147.054 46.179 147.98 45.1918 149.181 44.4886C150.388 43.7784 151.819 43.4233 153.474 43.4233C155.129 43.4233 156.556 43.7784 157.757 44.4886C158.964 45.1918 159.895 46.179 160.548 47.4503C161.201 48.7145 161.528 50.1918 161.528 51.8821C161.528 53.5582 161.201 55.032 160.548 56.3033C159.895 57.5675 158.964 58.5547 157.757 59.2649C156.556 59.968 155.129 60.3196 153.474 60.3196ZM153.495 56.804C154.248 56.804 154.877 56.5909 155.381 56.1648C155.885 55.7315 156.265 55.142 156.521 54.3963C156.784 53.6506 156.915 52.8018 156.915 51.8501C156.915 50.8984 156.784 50.0497 156.521 49.304C156.265 48.5582 155.885 47.9687 155.381 47.5355C154.877 47.1023 154.248 46.8857 153.495 46.8857C152.735 46.8857 152.096 47.1023 151.578 47.5355C151.066 47.9687 150.679 48.5582 150.417 49.304C150.161 50.0497 150.033 50.8984 150.033 51.8501C150.033 52.8018 150.161 53.6506 150.417 54.3963C150.679 55.142 151.066 55.7315 151.578 56.1648C152.096 56.5909 152.735 56.804 153.495 56.804ZM169.017 50.5398V60H164.479V43.6364H168.804V46.5234H168.996C169.358 45.5717 169.966 44.8189 170.818 44.2649C171.67 43.7038 172.703 43.4233 173.918 43.4233C175.054 43.4233 176.045 43.6719 176.89 44.169C177.735 44.6662 178.392 45.3764 178.861 46.2997C179.33 47.2159 179.564 48.3097 179.564 49.581V60H175.026V50.3906C175.033 49.3892 174.777 48.608 174.259 48.0469C173.74 47.4787 173.027 47.1946 172.118 47.1946C171.507 47.1946 170.967 47.326 170.498 47.5888C170.037 47.8516 169.674 48.2351 169.412 48.7393C169.156 49.2365 169.025 49.8366 169.017 50.5398ZM187.807 60.3089C186.763 60.3089 185.833 60.1278 185.016 59.7656C184.199 59.3963 183.553 58.853 183.077 58.1357C182.608 57.4112 182.374 56.5092 182.374 55.4297C182.374 54.5206 182.541 53.7571 182.875 53.1392C183.209 52.5213 183.663 52.0241 184.238 51.6477C184.814 51.2713 185.467 50.9872 186.199 50.7955C186.937 50.6037 187.711 50.4688 188.521 50.3906C189.473 50.2912 190.24 50.1989 190.822 50.1136C191.405 50.0213 191.827 49.8864 192.09 49.7088C192.353 49.5312 192.484 49.2685 192.484 48.9205V48.8565C192.484 48.1818 192.271 47.6598 191.845 47.2905C191.426 46.9212 190.829 46.7365 190.055 46.7365C189.238 46.7365 188.589 46.9176 188.106 47.2798C187.623 47.6349 187.303 48.0824 187.147 48.6222L182.949 48.2812C183.162 47.2869 183.581 46.4276 184.206 45.7031C184.831 44.9716 185.638 44.4105 186.625 44.0199C187.619 43.6222 188.77 43.4233 190.077 43.4233C190.986 43.4233 191.856 43.5298 192.687 43.7429C193.525 43.956 194.267 44.2862 194.913 44.7337C195.567 45.1811 196.081 45.7564 196.458 46.4595C196.834 47.1555 197.023 47.9901 197.023 48.9631V60H192.719V57.7308H192.591C192.328 58.2422 191.976 58.6932 191.536 59.0838C191.096 59.4673 190.567 59.7692 189.949 59.9893C189.331 60.2024 188.617 60.3089 187.807 60.3089ZM189.107 57.1768C189.775 57.1768 190.364 57.0455 190.876 56.7827C191.387 56.5128 191.788 56.1506 192.079 55.696C192.371 55.2415 192.516 54.7266 192.516 54.1513V52.4148C192.374 52.5071 192.179 52.5923 191.93 52.6705C191.689 52.7415 191.415 52.8089 191.11 52.8729C190.805 52.9297 190.499 52.983 190.194 53.0327C189.888 53.0753 189.611 53.1143 189.363 53.1499C188.83 53.228 188.365 53.3523 187.967 53.5227C187.569 53.6932 187.26 53.924 187.04 54.2152C186.82 54.4993 186.71 54.8544 186.71 55.2805C186.71 55.8984 186.934 56.3707 187.381 56.6974C187.836 57.017 188.411 57.1768 189.107 57.1768ZM205.082 38.1818V60H200.544V38.1818H205.082ZM208.717 60V43.6364H213.256V60H208.717ZM210.997 41.527C210.322 41.527 209.744 41.3033 209.261 40.8558C208.785 40.4013 208.547 39.858 208.547 39.2259C208.547 38.6009 208.785 38.0646 209.261 37.6172C209.744 37.1626 210.322 36.9354 210.997 36.9354C211.672 36.9354 212.247 37.1626 212.723 37.6172C213.206 38.0646 213.447 38.6009 213.447 39.2259C213.447 39.858 213.206 40.4013 212.723 40.8558C212.247 41.3033 211.672 41.527 210.997 41.527ZM216.806 60V57.294L224.817 47.3757V47.2585H217.083V43.6364H230.282V46.5874L222.761 56.2607V56.3778H230.559V60H216.806ZM238.696 60.3089C237.652 60.3089 236.722 60.1278 235.905 59.7656C235.088 59.3963 234.442 58.853 233.966 58.1357C233.497 57.4112 233.263 56.5092 233.263 55.4297C233.263 54.5206 233.43 53.7571 233.763 53.1392C234.097 52.5213 234.552 52.0241 235.127 51.6477C235.702 51.2713 236.356 50.9872 237.087 50.7955C237.826 50.6037 238.6 50.4688 239.41 50.3906C240.362 50.2912 241.129 50.1989 241.711 50.1136C242.293 50.0213 242.716 49.8864 242.979 49.7088C243.241 49.5312 243.373 49.2685 243.373 48.9205V48.8565C243.373 48.1818 243.16 47.6598 242.734 47.2905C242.315 46.9212 241.718 46.7365 240.944 46.7365C240.127 46.7365 239.477 46.9176 238.994 47.2798C238.511 47.6349 238.192 48.0824 238.036 48.6222L233.838 48.2812C234.051 47.2869 234.47 46.4276 235.095 45.7031C235.72 44.9716 236.526 44.4105 237.513 44.0199C238.508 43.6222 239.658 43.4233 240.965 43.4233C241.874 43.4233 242.744 43.5298 243.575 43.7429C244.413 43.956 245.156 44.2862 245.802 44.7337C246.455 45.1811 246.97 45.7564 247.347 46.4595C247.723 47.1555 247.911 47.9901 247.911 48.9631V60H243.607V57.7308H243.479C243.217 58.2422 242.865 58.6932 242.425 59.0838C241.984 59.4673 241.455 59.7692 240.837 59.9893C240.219 60.2024 239.506 60.3089 238.696 60.3089ZM239.996 57.1768C240.663 57.1768 241.253 57.0455 241.764 56.7827C242.276 56.5128 242.677 56.1506 242.968 55.696C243.259 55.2415 243.405 54.7266 243.405 54.1513V52.4148C243.263 52.5071 243.067 52.5923 242.819 52.6705C242.577 52.7415 242.304 52.8089 241.999 52.8729C241.693 52.9297 241.388 52.983 241.082 53.0327C240.777 53.0753 240.5 53.1143 240.251 53.1499C239.719 53.228 239.254 53.3523 238.856 53.5227C238.458 53.6932 238.149 53.924 237.929 54.2152C237.709 54.4993 237.599 54.8544 237.599 55.2805C237.599 55.8984 237.822 56.3707 238.27 56.6974C238.724 57.017 239.3 57.1768 239.996 57.1768ZM257.462 60.2663C256.219 60.2663 255.093 59.9467 254.085 59.3075C253.083 58.6612 252.288 57.7131 251.699 56.4631C251.116 55.206 250.825 53.6648 250.825 51.8395C250.825 49.9645 251.127 48.4055 251.73 47.1626C252.334 45.9126 253.137 44.9787 254.138 44.3608C255.147 43.7358 256.251 43.4233 257.451 43.4233C258.368 43.4233 259.131 43.5795 259.742 43.892C260.36 44.1974 260.857 44.581 261.233 45.0426C261.617 45.4972 261.908 45.9446 262.107 46.3849H262.245V38.1818H266.773V60H262.299V57.3793H262.107C261.894 57.8338 261.592 58.2848 261.201 58.7322C260.818 59.1726 260.317 59.5384 259.699 59.8295C259.088 60.1207 258.343 60.2663 257.462 60.2663ZM258.9 56.6548C259.632 56.6548 260.25 56.456 260.754 56.0582C261.265 55.6534 261.656 55.0888 261.926 54.3643C262.203 53.6399 262.341 52.7912 262.341 51.8182C262.341 50.8452 262.206 50 261.936 49.2827C261.667 48.5653 261.276 48.0114 260.765 47.6207C260.253 47.2301 259.632 47.0348 258.9 47.0348C258.154 47.0348 257.526 47.2372 257.015 47.642C256.503 48.0469 256.116 48.608 255.853 49.3253C255.591 50.0426 255.459 50.8736 255.459 51.8182C255.459 52.7699 255.591 53.6115 255.853 54.343C256.123 55.0675 256.51 55.6357 257.015 56.0476C257.526 56.4524 258.154 56.6548 258.9 56.6548ZM275.171 60.3089C274.127 60.3089 273.196 60.1278 272.379 59.7656C271.563 59.3963 270.916 58.853 270.441 58.1357C269.972 57.4112 269.737 56.5092 269.737 55.4297C269.737 54.5206 269.904 53.7571 270.238 53.1392C270.572 52.5213 271.026 52.0241 271.602 51.6477C272.177 51.2713 272.83 50.9872 273.562 50.7955C274.301 50.6037 275.075 50.4688 275.884 50.3906C276.836 50.2912 277.603 50.1989 278.186 50.1136C278.768 50.0213 279.191 49.8864 279.453 49.7088C279.716 49.5312 279.847 49.2685 279.847 48.9205V48.8565C279.847 48.1818 279.634 47.6598 279.208 47.2905C278.789 46.9212 278.193 46.7365 277.419 46.7365C276.602 46.7365 275.952 46.9176 275.469 47.2798C274.986 47.6349 274.666 48.0824 274.51 48.6222L270.313 48.2812C270.526 47.2869 270.945 46.4276 271.57 45.7031C272.195 44.9716 273.001 44.4105 273.988 44.0199C274.982 43.6222 276.133 43.4233 277.44 43.4233C278.349 43.4233 279.219 43.5298 280.05 43.7429C280.888 43.956 281.63 44.2862 282.276 44.7337C282.93 45.1811 283.445 45.7564 283.821 46.4595C284.198 47.1555 284.386 47.9901 284.386 48.9631V60H280.082V57.7308H279.954C279.691 58.2422 279.34 58.6932 278.899 59.0838C278.459 59.4673 277.93 59.7692 277.312 59.9893C276.694 60.2024 275.98 60.3089 275.171 60.3089ZM276.47 57.1768C277.138 57.1768 277.727 57.0455 278.239 56.7827C278.75 56.5128 279.151 56.1506 279.443 55.696C279.734 55.2415 279.879 54.7266 279.879 54.1513V52.4148C279.737 52.5071 279.542 52.5923 279.294 52.6705C279.052 52.7415 278.779 52.8089 278.473 52.8729C278.168 52.9297 277.862 52.983 277.557 53.0327C277.252 53.0753 276.975 53.1143 276.726 53.1499C276.193 53.228 275.728 53.3523 275.33 53.5227C274.933 53.6932 274.624 53.924 274.404 54.2152C274.183 54.4993 274.073 54.8544 274.073 55.2805C274.073 55.8984 274.297 56.3707 274.744 56.6974C275.199 57.017 275.774 57.1768 276.47 57.1768ZM301.522 48.3026L297.367 48.5582C297.296 48.2031 297.143 47.8835 296.909 47.5994C296.675 47.3082 296.366 47.0774 295.982 46.907C295.606 46.7294 295.155 46.6406 294.629 46.6406C293.926 46.6406 293.333 46.7898 292.85 47.0881C292.367 47.3793 292.126 47.7699 292.126 48.2599C292.126 48.6506 292.282 48.9808 292.594 49.2507C292.907 49.5206 293.443 49.7372 294.203 49.9006L297.165 50.4972C298.756 50.8239 299.942 51.3494 300.723 52.0739C301.504 52.7983 301.895 53.75 301.895 54.929C301.895 56.0014 301.579 56.9425 300.947 57.7521C300.322 58.5618 299.462 59.1939 298.368 59.6484C297.282 60.0959 296.028 60.3196 294.608 60.3196C292.442 60.3196 290.716 59.8686 289.43 58.9666C288.152 58.0575 287.403 56.8217 287.182 55.2592L291.646 55.0249C291.781 55.6854 292.108 56.1896 292.626 56.5376C293.145 56.8786 293.809 57.049 294.618 57.049C295.414 57.049 296.053 56.8963 296.536 56.5909C297.026 56.2784 297.275 55.8771 297.282 55.3871C297.275 54.9751 297.101 54.6378 296.76 54.375C296.419 54.1051 295.893 53.8991 295.183 53.7571L292.349 53.1925C290.751 52.8729 289.562 52.3189 288.78 51.5305C288.006 50.7422 287.619 49.7372 287.619 48.5156C287.619 47.4645 287.903 46.5589 288.471 45.799C289.047 45.0391 289.853 44.4531 290.89 44.0412C291.934 43.6293 293.155 43.4233 294.555 43.4233C296.621 43.4233 298.248 43.8601 299.434 44.7337C300.627 45.6072 301.323 46.7969 301.522 48.3026Z" fill="white"/>
</svg>
